<svg width="69" height="80" viewBox="0 0 69 80" fill="none" xmlns="http://www.w3.org/2000/svg">
<path d="M60.1371 59.5129C58.6086 60.0305 57.2463 60.4791 55.8839 60.9276C51.8301 62.2734 47.7762 63.6191 43.7556 65.0338C42.4929 65.4824 41.4961 65.3789 40.6986 64.1712C39.1369 61.7558 37.5419 59.3059 35.947 56.8904C35.6479 56.4074 35.1827 55.8208 35.8141 55.4067C36.4454 54.9581 36.7777 55.6827 37.0767 56.1313C38.5388 58.3742 40.0008 60.5826 41.4296 62.86C41.9945 63.7571 42.5926 63.9987 43.6227 63.6536C51.0658 61.1002 58.509 58.5812 65.9853 56.0968C67.1151 55.7172 67.248 55.2342 66.6167 54.268C64.6562 51.266 62.6957 48.264 60.7685 45.2619C60.403 44.6753 59.8381 44.4683 59.2732 44.2613C51.2984 41.5698 43.2904 38.8783 35.3156 36.1524C34.3852 35.8418 33.5878 36.0143 32.7238 36.2904C26.344 38.4298 19.9309 40.6036 13.5179 42.7775C13.2521 42.881 12.9862 42.9845 12.7204 43.0536C12.1555 43.1916 11.3913 43.6402 11.1255 42.8465C10.8264 41.9839 11.7236 41.9494 12.2884 41.7423C16.9736 40.1551 21.6256 38.5678 26.3108 36.9805C28.2048 36.3249 30.0988 35.6693 31.9928 35.0482C32.7571 34.8066 33.1558 34.5651 32.5577 33.6334C30.863 31.149 29.2016 28.6301 27.5734 26.1111C27.075 25.352 26.5434 25.283 25.7459 25.559C18.3028 28.1125 10.8264 30.6314 3.35004 33.1158C2.08736 33.5299 1.88799 34.0475 2.65224 35.1862C4.31366 37.6361 5.90861 40.1206 7.47034 42.605C7.86908 43.2261 8.3675 43.5712 9.03207 43.8127C17.0069 46.5042 25.0149 49.1611 32.9897 51.8871C33.8868 52.1976 34.6843 52.1631 35.5482 51.8526C42.2271 49.5752 48.8728 47.3323 55.5516 45.0549C55.8507 44.9514 56.183 44.8479 56.5153 44.7444C56.914 44.6063 57.3127 44.5718 57.4789 45.0549C57.645 45.5035 57.4457 45.8485 57.0137 45.9866C56.1165 46.3316 55.2526 46.6422 54.3554 46.9527C48.2082 49.0231 42.061 51.0934 35.9137 53.1293C35.0166 53.4399 34.3852 53.9229 33.8868 54.7511C31.9263 57.8221 29.8994 60.8241 27.939 63.8952C27.1082 65.2064 26.1446 65.5169 24.6826 65.0338C17.1398 62.4459 9.56372 59.927 1.98768 57.3735C-0.17216 56.6489 -0.537671 55.4412 0.725003 53.4744C2.15382 51.2315 3.61586 48.9886 5.11113 46.7457C5.41019 46.2971 5.74247 45.607 6.40704 46.1591C6.97192 46.6422 6.47349 47.0908 6.20767 47.5048C4.81208 49.7132 3.41649 51.9216 1.92122 54.061C1.25666 55.0271 1.15697 55.5792 2.45287 56.0278C9.96246 58.5122 17.5053 61.0657 24.9816 63.6191C25.7791 63.8952 26.344 63.8606 26.8424 63.1015C28.7697 60.134 30.6637 57.201 32.6241 54.268C33.4216 53.0603 32.3583 53.0603 31.7934 52.8532C23.9848 50.1963 16.1429 47.5738 8.30105 44.9514C7.70294 44.7444 7.20451 44.6063 6.839 43.9852C5.07791 41.1902 3.25035 38.4643 1.45602 35.6693C0.259807 33.7715 0.658546 32.5638 2.7187 31.8736C10.2947 29.2857 17.9372 26.7668 25.5133 24.1443C26.9089 23.6612 27.8393 24.0408 28.6367 25.2485C30.3646 27.94 32.1257 30.5624 33.8536 33.2539C34.3852 34.082 34.9833 34.5651 35.8805 34.8756C43.6559 37.4981 51.4313 40.1206 59.2068 42.7775C60.2036 43.1226 60.7685 43.0191 61.3334 42.0184C62.729 39.672 64.2574 37.3946 65.7527 35.1517C66.4173 34.1855 66.4505 33.5644 65.1878 33.1504C57.6783 30.6314 50.1354 28.1125 42.6591 25.559C41.6955 25.2485 41.2303 25.5245 40.7318 26.2837C39.4692 28.2505 38.1733 30.1828 36.9106 32.1152C36.5783 32.5983 36.246 33.1849 35.6147 32.7018C35.083 32.2532 35.5482 31.7701 35.8141 31.356C37.1764 29.2512 38.5388 27.1808 39.9344 25.076C40.5989 24.0753 41.4629 23.6612 42.6591 24.0753C50.4345 26.7322 58.2099 29.3202 65.9521 31.9771C67.7464 32.5983 68.1452 33.806 67.1151 35.4277C65.6863 37.7396 64.2242 40.0515 62.6625 42.2944C61.7986 43.4676 61.6989 44.3648 62.596 45.607C64.3571 48.0569 65.9189 50.6104 67.547 53.1638C69.0091 55.4412 68.6768 56.5109 66.2179 57.408C64.6562 57.9601 62.4631 58.1327 61.7321 59.2714C60.9346 60.5136 61.4663 62.7219 61.433 64.4818C61.3998 65.9655 61.433 67.4838 61.433 68.9675C61.433 71.2794 60.702 72.3491 58.5754 73.0047C52.1291 75.0406 45.5832 76.8004 39.2366 79.1123C35.4818 80.4925 32.1257 80.1475 28.5038 78.8707C22.4563 76.8004 16.2758 75.0406 10.1286 73.1427C7.7694 72.4181 6.97192 71.3484 6.97192 68.795C6.97192 66.8282 6.93869 64.8958 6.97192 62.929C6.97192 62.3079 6.67286 61.2382 7.57003 61.2382C8.63333 61.2382 8.23459 62.3424 8.26782 62.998C8.30105 64.9648 8.33428 66.8972 8.26782 68.864C8.20136 70.3478 8.79947 71.2449 10.1618 71.6935C17.904 74.1089 25.613 76.4898 33.3219 78.9052C34.053 79.1123 34.7175 79.0088 35.4153 78.7672C42.9249 76.4208 50.4345 74.0744 57.9773 71.7625C59.4393 71.3139 60.1704 70.4513 60.1039 68.7605C60.0707 65.7585 60.1371 62.722 60.1371 59.5129Z" fill="#292931"/>
<path d="M14.1499 44.0197C20.8952 41.7423 27.2418 39.5685 33.5884 37.4291C34.0869 37.2566 34.5521 37.2911 35.0505 37.4636C41.1645 39.5685 47.3117 41.6388 53.4589 43.7092C53.6583 43.7782 53.8245 43.9162 54.1567 44.0888C47.6108 46.2971 41.2309 48.471 34.8179 50.6104C34.4191 50.7484 34.0869 50.7484 33.6881 50.6104C27.2751 48.4365 20.8952 46.2971 14.1499 44.0197Z" fill="#F8253A"/>
<path d="M42.8583 7.99561C42.4596 8.40968 41.9612 8.40968 41.4627 8.44418L41.1969 7.99561C39.2032 7.99561 37.2428 7.99561 35.2491 8.03011C35.3155 8.16813 35.382 8.34067 35.4484 8.47869C35.382 8.47869 35.3155 8.47869 35.2491 8.47869C34.7174 8.51319 34.219 8.37517 33.787 8.03011C33.056 7.78857 32.4911 7.409 32.5243 6.51185C32.5576 5.71821 33.0892 5.33865 33.7538 5.16612C34.2522 4.89007 34.7174 4.75205 35.2158 5.16612C37.5086 5.20062 39.8346 5.23513 42.1273 5.20062C42.958 5.20062 43.7223 5.30414 43.9549 6.27031C44.2872 7.20197 43.6558 7.68505 42.8583 7.99561Z" fill="#F8253A"/>
<path d="M42.8579 12.1363C41.5952 13.4475 40.0335 13.275 38.5382 12.7229C36.3119 11.8948 34.6173 10.411 33.853 8.03011C34.3515 8.03011 34.8166 8.03011 35.2818 8.03011C35.3483 8.16813 35.4148 8.34066 35.4812 8.47869C36.1458 9.78991 37.2091 10.6871 38.5382 11.2392C39.668 11.7222 40.9639 12.2398 41.8943 11.0666C42.6253 10.135 41.994 9.27233 41.4623 8.44418L41.1965 7.99561H42.8247C43.4228 9.37584 44.1206 10.8251 42.8579 12.1363Z" fill="#292931"/>
<path d="M35.2824 5.13165C34.7839 5.13165 34.3187 5.13165 33.8203 5.13165C34.7507 2.33667 36.7444 0.783904 39.4359 0.128291C41.5293 -0.389298 43.4233 0.714892 43.523 2.44019C43.5562 2.95778 43.6226 3.57889 42.9913 3.71691C42.3267 3.85493 42.2271 3.30284 42.1606 2.71624C42.0277 1.336 40.9976 1.26699 40.0672 1.40501C37.8742 1.78458 36.246 2.99228 35.2824 5.13165Z" fill="#292931"/>
<path d="M37.5752 21.1077C38.2397 21.1077 38.8711 21.1077 39.5356 21.1077C40.0008 21.1077 40.4328 21.3147 40.4328 21.8668C40.3996 22.3499 40.0008 22.4879 39.6021 22.4879C38.3394 22.4879 37.0767 22.4879 35.8473 22.4534C35.4485 22.4534 35.0498 22.2464 35.0498 21.7978C35.0498 21.2112 35.515 21.1077 35.9802 21.1077C36.4786 21.0732 37.0103 21.0732 37.5752 21.1077Z" fill="#292931"/>
<path d="M51.6968 14.1721C52.2285 14.2756 52.4278 14.6207 52.3281 15.0348C51.9294 16.484 51.2981 17.7952 50.1683 18.8304C49.9357 19.0375 49.6366 19.072 49.4041 18.9339C49.1715 18.7614 49.0385 18.4164 49.1715 18.1748C50.0022 16.9671 50.7 15.6904 51.3313 14.3446C51.3313 14.2066 51.5971 14.2066 51.6968 14.1721Z" fill="#292931"/>
<path d="M43.7227 22.074C43.2908 22.143 42.9253 22.0395 42.8256 21.5564C42.7591 21.1078 43.0249 20.8317 43.4569 20.7282C44.5202 20.4177 45.5503 20.0381 46.6136 19.7276C47.0456 19.5895 47.544 19.486 47.7434 20.0381C47.9427 20.5212 47.5108 20.7627 47.1785 20.9353C46.0819 21.5219 44.8857 21.7979 43.7227 22.074Z" fill="#292931"/>
<path d="M31.4275 21.1079C32.2915 21.0734 32.7567 21.1424 32.8231 21.729C32.8564 22.2121 32.4909 22.3846 32.0921 22.4881C31.0288 22.7297 29.9655 23.0057 28.9022 23.2818C28.4702 23.3853 28.1379 23.4198 27.9386 22.9712C27.706 22.3846 28.0715 22.1086 28.5035 21.9705C29.6 21.591 30.6965 21.3149 31.4275 21.1079Z" fill="#292931"/>
<path d="M52.029 10.4109C52.029 10.618 51.9293 10.894 51.6303 10.9975C51.2648 11.1355 50.9657 10.9975 50.7996 10.6525C50.2679 9.51377 49.5701 8.51309 48.673 7.65045C48.4736 7.44341 48.4736 7.13286 48.673 6.89131C48.8723 6.64977 49.1049 6.58076 49.404 6.68428C50.135 6.92582 52.029 9.54827 52.029 10.4109Z" fill="#292931"/>
<path d="M25.6458 29.2857C25.6458 29.8033 25.6458 30.1483 25.6458 30.4934C25.6458 30.873 25.4797 31.1835 25.0809 31.218C24.7154 31.2525 24.4828 30.942 24.3831 30.5969C24.2834 30.2864 24.2502 29.9068 24.2834 29.5963C24.3499 28.8716 23.9844 27.6294 24.9812 27.5949C26.2439 27.5604 25.2803 28.8716 25.6458 29.2857Z" fill="#292931"/>
<path d="M27.607 35.1518C27.607 35.7039 27.4077 36.0145 27.0089 35.911C26.0121 35.6349 25.7795 34.6688 25.4804 33.8406C25.3143 33.3575 25.713 32.978 26.145 33.1505C27.0422 33.4955 27.2415 34.4617 27.607 35.1518Z" fill="#292931"/>
</svg>
