<svg width="171" height="121" viewBox="0 0 171 121" fill="none" xmlns="http://www.w3.org/2000/svg">
<path fill-rule="evenodd" clip-rule="evenodd" d="M199.398 -125.939L124.864 2.92576C111.568 25.9149 119.418 55.3476 142.399 68.6655C165.38 81.9834 194.789 74.1434 208.085 51.1542L282.619 -77.7106C295.916 -100.7 288.065 -130.132 265.084 -143.45C242.104 -156.768 212.695 -148.928 199.398 -125.939ZM85.4437 -19.9194C59.5502 24.849 74.8382 82.1653 119.59 108.1C164.343 134.035 221.612 118.768 247.506 73.9993L322.04 -54.8655C347.933 -99.6338 332.645 -156.95 287.893 -182.885C243.141 -208.82 185.871 -193.553 159.978 -148.784L85.4437 -19.9194Z" fill="#F8253A"/>
<path fill-rule="evenodd" clip-rule="evenodd" d="M127.419 -161.027L52.8853 -32.1622C39.5886 -9.17305 47.4392 20.2596 70.4201 33.5775C93.4009 46.8955 122.81 39.0554 136.106 16.0663L210.64 -112.799C223.937 -135.788 216.086 -165.22 193.105 -178.538C170.125 -191.856 140.716 -184.016 127.419 -161.027ZM13.4647 -55.0073C-12.4288 -10.239 2.85921 47.0773 47.6114 73.0123C92.3637 98.9472 149.633 83.6797 175.527 38.9114L250.061 -89.9534C275.954 -134.722 260.666 -192.038 215.914 -217.973C171.162 -243.908 113.892 -228.64 87.9987 -183.872L13.4647 -55.0073Z" fill="#E9727E"/>
</svg>
