<svg width="35" height="35" viewBox="0 0 35 35" fill="none" xmlns="http://www.w3.org/2000/svg">
<rect width="35" height="35" fill="white"/>
<path d="M19.5162 26.3332H16.4829C16.0913 26.3332 15.7525 26.0607 15.6687 25.6782L15.3295 24.1082C14.8771 23.9099 14.448 23.662 14.0504 23.369L12.5195 23.8565C12.1462 23.9756 11.7403 23.8184 11.5445 23.479L10.0245 20.8532C9.83085 20.5136 9.89757 20.0852 10.1854 19.8207L11.3729 18.7373C11.3189 18.2466 11.3189 17.7514 11.3729 17.2607L10.1854 16.1798C9.89715 15.9151 9.8304 15.4863 10.0245 15.1465L11.5412 12.519C11.737 12.1796 12.1429 12.0225 12.5162 12.1415L14.047 12.629C14.2504 12.4783 14.4621 12.3392 14.6812 12.2123C14.8915 12.0937 15.1079 11.9864 15.3295 11.8907L15.6695 10.3223C15.7529 9.93981 16.0913 9.66692 16.4829 9.6665H19.5162C19.9077 9.66692 20.2461 9.93981 20.3295 10.3223L20.6729 11.8915C20.9068 11.9944 21.1347 12.1107 21.3554 12.2398C21.5611 12.3588 21.7601 12.4893 21.9512 12.6307L23.4829 12.1432C23.8559 12.0246 24.2613 12.1816 24.457 12.5207L25.9737 15.1482C26.1674 15.4877 26.1006 15.9161 25.8129 16.1807L24.6254 17.264C24.6794 17.7547 24.6794 18.2499 24.6254 18.7407L25.8129 19.824C26.1006 20.0886 26.1674 20.5169 25.9737 20.8565L24.457 23.484C24.2613 23.823 23.8559 23.9801 23.4829 23.8615L21.9512 23.374C21.7574 23.5168 21.556 23.6489 21.3479 23.7698C21.1294 23.8964 20.904 24.0108 20.6729 24.1123L20.3295 25.6782C20.2458 26.0604 19.9075 26.3328 19.5162 26.3332ZM14.3495 21.524L15.0329 22.024C15.1869 22.1375 15.3475 22.2418 15.5137 22.3365C15.6701 22.4271 15.8312 22.5094 15.9962 22.5832L16.7737 22.924L17.1545 24.6665H18.8462L19.227 22.9232L20.0045 22.5823C20.3439 22.4327 20.6661 22.2466 20.9654 22.0273L21.6495 21.5273L23.3504 22.069L24.1962 20.604L22.877 19.4015L22.9704 18.5582C23.0114 18.1893 23.0114 17.817 22.9704 17.4482L22.877 16.6048L24.197 15.3998L23.3504 13.934L21.6495 14.4757L20.9654 13.9757C20.666 13.7554 20.3439 13.568 20.0045 13.4165L19.227 13.0757L18.8462 11.3332H17.1545L16.772 13.0765L15.9962 13.4165C15.831 13.489 15.67 13.5706 15.5137 13.6607C15.3485 13.7551 15.1888 13.8589 15.0354 13.9715L14.3512 14.4715L12.6512 13.9298L11.8037 15.3998L13.1229 16.6007L13.0295 17.4448C12.9885 17.8137 12.9885 18.186 13.0295 18.5548L13.1229 19.3982L11.8037 20.6007L12.6495 22.0657L14.3495 21.524ZM17.9962 21.3332C16.1552 21.3332 14.6629 19.8408 14.6629 17.9998C14.6629 16.1589 16.1552 14.6665 17.9962 14.6665C19.8371 14.6665 21.3295 16.1589 21.3295 17.9998C21.3272 19.8398 19.8362 21.3309 17.9962 21.3332ZM17.9962 16.3332C17.0857 16.3341 16.3444 17.0655 16.3314 17.976C16.3183 18.8864 17.0383 19.6388 17.9484 19.6658C18.8585 19.6928 19.6219 18.9844 19.6629 18.0748V18.4082V17.9998C19.6629 17.0794 18.9167 16.3332 17.9962 16.3332Z" fill="#292931"/>
</svg>
