<svg width="250" height="205" viewBox="0 0 250 205" fill="none" xmlns="http://www.w3.org/2000/svg">
<path fill-rule="evenodd" clip-rule="evenodd" d="M95.1974 141.465L-44.9444 261.545C-69.9453 282.967 -72.8616 320.617 -51.4582 345.64C-30.0547 370.662 7.56345 373.581 32.5644 352.159L172.706 232.079C197.707 210.657 200.623 173.007 179.22 147.985C157.816 122.962 120.198 120.043 95.1974 141.465ZM-81.6592 218.622C-130.345 260.339 -136.024 333.658 -94.3438 382.386C-52.6634 431.114 20.5932 436.798 69.2791 395.082L209.421 275.002C258.107 233.286 263.786 159.966 222.106 111.238C180.425 62.5103 107.169 56.8264 58.4826 98.5427L-81.6592 218.622Z" fill="#F8253A"/>
<path fill-rule="evenodd" clip-rule="evenodd" d="M25.4356 70.841L-114.706 190.921C-139.707 212.343 -142.623 249.993 -121.22 275.015C-99.8165 300.038 -62.1983 302.957 -37.1974 281.535L102.944 161.455C127.945 140.033 130.862 102.383 109.458 77.3602C88.0547 52.3379 50.4366 49.4191 25.4356 70.841ZM-151.421 147.998C-200.107 189.714 -205.786 263.034 -164.106 311.762C-122.425 360.49 -49.1686 366.174 -0.482605 324.457L139.659 204.378C188.345 162.661 194.024 89.3418 152.344 40.6139C110.663 -8.11398 37.4069 -13.7979 -11.2791 27.9184L-151.421 147.998Z" fill="#E9727E"/>
</svg>
