<svg width="24" height="28" viewBox="0 0 24 28" fill="none" xmlns="http://www.w3.org/2000/svg">
<path d="M1.74686 0.278114C0.760069 1.28622 0.72204 2.50952 0.825353 3.63743C0.988838 5.20378 1.31329 6.76415 1.77908 8.22915C4.09367 14.9137 8.4957 19.6078 14.5794 22.5168C16.1289 23.2506 17.8091 23.7591 19.6137 24.4233C18.3743 25.8414 16.4741 26.3025 15.1209 27.6948C15.8341 28.0689 16.4191 27.7768 16.9099 27.5482C18.92 26.6023 20.9393 25.616 22.9298 24.5806C23.8826 24.0746 24.0776 23.5666 23.5594 22.6844C22.5035 20.8307 21.0064 19.5141 19.0972 18.7837C19.0213 18.7665 18.8799 18.8619 18.6535 18.9805C18.677 20.8124 20.8559 20.8818 21.2758 22.5488C18.5106 22.6013 16.1159 21.5484 13.852 20.2704C11.4834 18.926 9.28364 17.3651 7.48699 15.2585C5.71913 13.2008 4.46035 10.8338 3.36124 8.29062C2.21501 5.77922 1.74014 3.12274 1.74686 0.278114Z" fill="#F8253A"/>
</svg>
