<svg width="138" height="31" viewBox="0 0 138 31" fill="none" xmlns="http://www.w3.org/2000/svg">
<path d="M16.6181 7.06473C16.609 7.07209 16.5993 7.07878 16.5892 7.08476C16.5888 7.07981 16.5877 7.07494 16.5859 7.07029L16.6181 7.06473Z" fill="#F8253A"/>
<path d="M33.4836 0.798002C30.843 1.2647 28.209 1.80426 25.615 2.50291C22.473 3.05138 19.3588 3.72723 16.2623 4.48818C14.9548 4.74684 13.6395 4.966 12.3441 5.27361C11.2603 5.53449 10.1828 5.88562 9.10551 6.12968C8.59013 6.24643 8.36651 6.45898 8.10111 5.8421C7.71246 4.9354 7.2011 4.08267 6.71306 3.22326C6.49597 2.83722 6.3988 2.32714 5.97073 2.12633C4.45497 1.41322 2.93589 0.703996 1.38793 0.0776559C0.84381 -0.141507 0.318571 0.111587 0.0909296 0.731252C-0.127828 1.32644 0.0509537 1.79314 0.596737 2.09908C0.908771 2.27485 1.23247 2.46286 1.57559 2.54797C3.91696 3.13259 5.24283 4.71735 6.20004 6.85726C7.25163 9.2102 7.35268 9.16514 9.83119 8.44814C10.2992 8.45203 10.7601 8.17835 11.2387 8.42477C11.8039 8.71625 12.0715 9.17738 12.0571 9.80539C12.0315 10.6654 11.4086 10.9496 10.7312 11.1777C8.98225 11.3874 7.28883 11.8724 5.57152 12.2345C4.62765 12.4337 4.24177 12.9927 4.41 13.8087C4.57101 14.5925 5.20119 14.9618 6.14063 14.761C8.03227 14.3555 9.92002 13.9228 11.8094 13.5011L17.9263 12.2256C18.6725 12.1728 19.3083 12.3213 19.5431 13.1501C19.7924 14.0279 19.3877 14.5875 18.6292 14.9618C15.7332 15.5609 12.8322 16.14 9.94501 16.7736C9.16492 16.9438 8.93894 17.5862 9.09607 18.3227C9.24043 18.9997 9.72292 19.3451 10.4003 19.2912C10.9 19.2511 11.3997 19.1082 11.8872 18.9741C12.4635 18.815 12.8227 18.9524 13.0937 19.5354C13.4823 20.3697 13.851 21.2442 14.5317 21.9044C16.2124 23.5331 18.1628 23.6689 20.2655 22.9124C22.6268 22.5269 24.9588 22.004 27.2785 21.4283C27.4556 21.4201 27.6323 21.4027 27.8076 21.376C29.1846 21.0979 30.5609 20.8197 31.934 20.5271C32.281 20.4509 32.6386 20.3731 32.7469 20.7986C32.8751 21.2992 32.4431 21.3727 32.0967 21.4661C31.8363 21.5351 31.5692 21.5774 31.3072 21.633L24.9371 23.0609C23.669 23.3051 22.3959 23.5259 21.1366 23.8029C18.3344 24.4181 17.2145 25.9061 17.3467 28.7803C17.3989 29.8716 18.1107 30.731 19.1473 30.9535C20.0939 31.1566 21.0822 30.6804 21.5575 29.7938C22.0433 28.8832 21.8351 27.7067 21.0766 26.9902C20.869 26.7928 20.5131 26.7533 20.4232 26.3366C21.9961 25.7036 23.7267 25.6636 25.313 25.0901C26.565 25.0445 27.741 24.5466 29.018 24.4254C27.9414 26.3133 28.0608 27.5315 29.365 28.3403C29.8386 28.6356 30.4072 28.7378 30.9537 28.6257C31.5002 28.5136 31.983 28.1959 32.3027 27.7378C33.186 26.469 32.8024 25.2692 31.029 23.9603C31.6775 23.8213 32.2594 23.7128 32.8335 23.571C34.322 23.1999 35.2653 21.7954 34.9722 20.4053C34.8175 19.6927 34.3887 19.07 33.7786 18.6722C33.1686 18.2744 32.4266 18.1336 31.7136 18.2804C29.8708 18.652 28.0425 19.0865 26.2063 19.492C24.0549 19.9008 21.8978 20.2774 19.7874 20.8826H19.7841C19.7569 20.8898 19.7286 20.8987 19.703 20.906C19.2655 20.971 18.8147 20.9799 18.3949 21.1101C17.3633 21.4344 16.7365 20.8225 15.8442 20.1584C17.3217 20.0009 18.5248 19.7223 19.7263 19.4324L29.8047 17.2825C30.5943 17.1212 31.3888 16.9894 32.1711 16.7941C34.0588 16.3252 35.3958 15.1087 35.669 13.2247C36.1265 10.0574 36.3702 6.85225 36.5634 3.65714C36.6689 1.93832 35.1099 0.51042 33.4836 0.798002ZM16.6327 9.90496C16.133 9.98673 15.6333 10.0752 15.1336 10.1475C14.3401 10.2637 13.7261 9.87437 13.5762 9.17015C13.399 8.33244 13.7838 7.65937 14.6022 7.46023C15.2563 7.29892 15.9247 7.19601 16.5877 7.06752L16.6199 7.06196C17.2673 7.32451 17.7492 7.69887 17.767 8.48819C17.7836 9.29698 17.2706 9.64297 16.6327 9.90496Z" fill="#F8253A"/>
<path d="M19.7851 20.8804C19.7579 20.8876 19.7296 20.8965 19.7041 20.9037C19.7285 20.8886 19.7565 20.8806 19.7851 20.8804Z" fill="#F8253A"/>
<path d="M16.6181 7.06473C16.609 7.07209 16.5993 7.07878 16.5892 7.08476C16.5888 7.07981 16.5877 7.07494 16.5859 7.07029L16.6181 7.06473Z" fill="#F8253A"/>
<path d="M6.87956 19.977C5.77911 20.3336 4.63202 20.5433 3.67649 20.7736C2.81478 20.6773 2.37782 20.3286 2.27289 19.646C2.17184 18.9708 2.41225 18.4295 3.09462 18.2504C4.1029 17.9862 5.12562 17.7542 6.15333 17.5896C6.8146 17.485 7.3193 17.8121 7.51529 18.4874C7.70129 19.1426 7.52973 19.7673 6.87956 19.977Z" fill="#F8253A"/>
<path d="M16.6181 7.06473C16.609 7.07209 16.5993 7.07878 16.5892 7.08476C16.5888 7.07981 16.5877 7.07494 16.5859 7.07029L16.6181 7.06473Z" fill="#F8253A"/>
<path d="M48.9502 21.6157C45.1507 21.6157 42.7483 19.9549 42.5789 17.072L42.5684 16.884H46.1773L46.1985 16.9989C46.389 17.9703 47.532 18.6075 49.0243 18.6075C50.5694 18.6075 51.522 17.9599 51.522 17.0198V17.0093C51.522 16.1528 50.8446 15.7559 49.056 15.4112L47.4897 15.1187C44.4628 14.5651 42.8647 13.0924 42.8647 10.7839V10.7735C42.8647 7.86971 45.4153 6 48.9184 6C52.7496 6 54.9192 7.7757 55.0568 10.5124L55.0674 10.7317H51.4585L51.4479 10.6168C51.3315 9.62452 50.3472 9.00825 48.9502 9.00825C47.5214 9.00825 46.7171 9.64541 46.7171 10.5124V10.5228C46.7171 11.3375 47.4367 11.7658 49.0772 12.0687L50.6435 12.3612C53.8821 12.9775 55.3849 14.2727 55.3849 16.6855V16.696C55.3849 19.7042 52.9931 21.6157 48.9502 21.6157Z" fill="#292931"/>
<path d="M56.5601 21.3441V6.27158H60.3172V12.0165H60.3913C60.9628 10.5333 62.1587 9.72897 63.8944 9.72897C66.4133 9.72897 67.895 11.3793 67.895 14.116V21.3441H64.1378V14.9098C64.1378 13.5624 63.4817 12.7477 62.2434 12.7477C61.0581 12.7477 60.3172 13.646 60.3172 14.8994V21.3441H56.5601Z" fill="#292931"/>
<path d="M74.7958 21.5844C71.1445 21.5844 68.9008 19.4118 68.9008 15.6619V15.641C68.9008 11.9538 71.2186 9.72897 74.7958 9.72897C78.3836 9.72897 80.6908 11.9329 80.6908 15.641V15.6619C80.6908 19.4222 78.4259 21.5844 74.7958 21.5844ZM74.8064 18.7746C76.087 18.7746 76.8913 17.657 76.8913 15.6619V15.641C76.8913 13.6773 76.0658 12.5388 74.7958 12.5388C73.5258 12.5388 72.7109 13.6773 72.7109 15.641V15.6619C72.7109 17.6674 73.5046 18.7746 74.8064 18.7746Z" fill="#292931"/>
<path d="M81.7072 25V9.96921H85.4643V11.9956H85.549C86.1311 10.575 87.3588 9.72897 88.9992 9.72897C91.9097 9.72897 93.603 11.8911 93.603 15.6515V15.6619C93.603 19.4013 91.9202 21.5844 89.0415 21.5844C87.38 21.5844 86.1099 20.7592 85.5384 19.3909H85.4643V25H81.7072ZM87.6234 18.5761C88.9463 18.5761 89.793 17.4585 89.793 15.6619V15.6515C89.793 13.834 88.9463 12.7477 87.6234 12.7477C86.3216 12.7477 85.4432 13.8444 85.4432 15.6619V15.6723C85.4432 17.4689 86.311 18.5761 87.6234 18.5761Z" fill="#292931"/>
<path d="M94.6512 25V9.96921H98.4083V11.9956H98.493C99.0751 10.575 100.303 9.72897 101.943 9.72897C104.854 9.72897 106.547 11.8911 106.547 15.6515V15.6619C106.547 19.4013 104.864 21.5844 101.986 21.5844C100.324 21.5844 99.0539 20.7592 98.4824 19.3909H98.4083V25H94.6512ZM100.567 18.5761C101.89 18.5761 102.737 17.4585 102.737 15.6619V15.6515C102.737 13.834 101.89 12.7477 100.567 12.7477C99.2656 12.7477 98.3872 13.8444 98.3872 15.6619V15.6723C98.3872 17.4689 99.255 18.5761 100.567 18.5761Z" fill="#292931"/>
<path d="M113.099 21.5844C109.458 21.5844 107.246 19.3386 107.246 15.6619V15.6515C107.246 11.9956 109.468 9.72897 112.972 9.72897C116.454 9.72897 118.665 11.9747 118.665 15.4217V16.508H110.918C110.961 18.0434 111.807 18.9522 113.173 18.9522C114.379 18.9522 115.035 18.2732 115.205 17.8032L115.215 17.751H118.602L118.57 17.8763C118.221 19.4535 116.771 21.5844 113.099 21.5844ZM113.056 12.3612C111.956 12.3612 111.162 13.0715 110.971 14.3249H115.131C114.94 13.0506 114.157 12.3612 113.056 12.3612Z" fill="#292931"/>
<path d="M119.692 21.3441V9.96921H123.45V11.9852H123.524C123.841 10.5437 124.751 9.72897 126.106 9.72897C126.466 9.72897 126.794 9.7812 127.08 9.87521V13.0401C126.762 12.9148 126.328 12.8312 125.884 12.8312C124.307 12.8312 123.45 13.6877 123.45 15.3068V21.3441H119.692Z" fill="#292931"/>
<path d="M127.588 21.3441V19.3804L133.092 12.7581V12.685H127.715V9.96921H137.388V12.2254L132.382 18.5553V18.6284H137.568V21.3441H127.588Z" fill="#292931"/>
</svg>
