<svg width="146" height="31" viewBox="0 0 146 31" fill="none" xmlns="http://www.w3.org/2000/svg">
<path d="M16.6181 7.06473C16.609 7.07209 16.5993 7.07878 16.5892 7.08476C16.5888 7.07981 16.5877 7.07494 16.5859 7.07029L16.6181 7.06473Z" fill="#F8253A"/>
<path d="M33.4836 0.798002C30.843 1.2647 28.209 1.80426 25.615 2.50291C22.473 3.05138 19.3588 3.72723 16.2623 4.48818C14.9548 4.74684 13.6395 4.966 12.3441 5.27361C11.2603 5.53449 10.1828 5.88562 9.10551 6.12968C8.59013 6.24643 8.36651 6.45898 8.10111 5.8421C7.71246 4.9354 7.2011 4.08267 6.71306 3.22326C6.49597 2.83722 6.3988 2.32714 5.97073 2.12633C4.45497 1.41322 2.93589 0.703996 1.38793 0.0776559C0.84381 -0.141507 0.318571 0.111587 0.0909296 0.731252C-0.127828 1.32644 0.0509537 1.79314 0.596737 2.09908C0.908771 2.27485 1.23247 2.46286 1.57559 2.54797C3.91696 3.13259 5.24283 4.71735 6.20004 6.85726C7.25163 9.2102 7.35268 9.16515 9.83119 8.44814C10.2992 8.45203 10.7601 8.17836 11.2387 8.42477C11.8039 8.71625 12.0715 9.17738 12.0571 9.80539C12.0315 10.6654 11.4086 10.9496 10.7312 11.1777C8.98225 11.3874 7.28883 11.8724 5.57152 12.2345C4.62765 12.4337 4.24177 12.9927 4.41 13.8087C4.57101 14.5925 5.20119 14.9618 6.14063 14.761C8.03227 14.3555 9.92002 13.9228 11.8094 13.5011L17.9263 12.2256C18.6725 12.1728 19.3083 12.3213 19.5431 13.1501C19.7924 14.0279 19.3877 14.5875 18.6292 14.9618C15.7332 15.5609 12.8322 16.14 9.94501 16.7736C9.16492 16.9438 8.93894 17.5862 9.09607 18.3227C9.24043 18.9997 9.72292 19.3451 10.4003 19.2912C10.9 19.2511 11.3997 19.1082 11.8872 18.9741C12.4635 18.815 12.8227 18.9524 13.0937 19.5354C13.4823 20.3697 13.851 21.2442 14.5317 21.9044C16.2124 23.5331 18.1628 23.6689 20.2655 22.9124C22.6268 22.5269 24.9588 22.004 27.2785 21.4283C27.4556 21.4201 27.6323 21.4027 27.8076 21.376C29.1846 21.0979 30.5609 20.8197 31.934 20.5271C32.281 20.4509 32.6386 20.3731 32.7469 20.7986C32.8751 21.2992 32.4432 21.3727 32.0967 21.4661C31.8363 21.5351 31.5692 21.5774 31.3072 21.633L24.9371 23.0609C23.669 23.3051 22.3959 23.5259 21.1366 23.8029C18.3344 24.4181 17.2145 25.9061 17.3467 28.7803C17.3989 29.8716 18.1107 30.731 19.1473 30.9535C20.0939 31.1566 21.0822 30.6804 21.5575 29.7938C22.0433 28.8832 21.8351 27.7067 21.0766 26.9902C20.869 26.7928 20.5131 26.7533 20.4232 26.3366C21.9961 25.7036 23.7267 25.6636 25.313 25.0901C26.565 25.0445 27.741 24.5466 29.018 24.4254C27.9414 26.3133 28.0608 27.5315 29.365 28.3403C29.8386 28.6356 30.4072 28.7378 30.9537 28.6257C31.5002 28.5136 31.983 28.1959 32.3027 27.7378C33.186 26.469 32.8024 25.2692 31.029 23.9603C31.6775 23.8213 32.2594 23.7128 32.8335 23.571C34.322 23.1999 35.2653 21.7954 34.9722 20.4053C34.8175 19.6927 34.3887 19.07 33.7786 18.6722C33.1686 18.2744 32.4266 18.1336 31.7136 18.2804C29.8708 18.652 28.0425 19.0865 26.2063 19.492C24.0549 19.9008 21.8978 20.2774 19.7874 20.8826H19.7841C19.7569 20.8898 19.7286 20.8987 19.703 20.906C19.2655 20.971 18.8147 20.9799 18.3949 21.1101C17.3633 21.4344 16.7365 20.8225 15.8442 20.1584C17.3217 20.0009 18.5248 19.7223 19.7263 19.4324L29.8047 17.2825C30.5943 17.1212 31.3888 16.9894 32.1711 16.7941C34.0588 16.3252 35.3958 15.1087 35.669 13.2247C36.1265 10.0574 36.3702 6.85225 36.5634 3.65714C36.6689 1.93832 35.1099 0.51042 33.4836 0.798002ZM16.6327 9.90496C16.133 9.98673 15.6333 10.0752 15.1336 10.1475C14.3401 10.2637 13.7261 9.87437 13.5762 9.17015C13.399 8.33244 13.7838 7.65937 14.6022 7.46023C15.2563 7.29892 15.9247 7.19601 16.5877 7.06752L16.6199 7.06196C17.2673 7.32451 17.7492 7.69887 17.767 8.48819C17.7836 9.29698 17.2706 9.64297 16.6327 9.90496Z" fill="#F8253A"/>
<path d="M19.7851 20.8804C19.7579 20.8876 19.7296 20.8965 19.7041 20.9037C19.7285 20.8886 19.7565 20.8806 19.7851 20.8804Z" fill="#F8253A"/>
<path d="M16.6181 7.06473C16.609 7.07209 16.5993 7.07878 16.5892 7.08476C16.5888 7.07981 16.5877 7.07494 16.5859 7.07029L16.6181 7.06473Z" fill="#F8253A"/>
<path d="M6.87956 19.977C5.77911 20.3336 4.63202 20.5433 3.67649 20.7736C2.81478 20.6773 2.37782 20.3286 2.27289 19.646C2.17184 18.9708 2.41225 18.4295 3.09462 18.2504C4.1029 17.9862 5.12562 17.7542 6.15333 17.5896C6.8146 17.485 7.3193 17.8121 7.51529 18.4874C7.70129 19.1426 7.52973 19.7673 6.87956 19.977Z" fill="#F8253A"/>
<path d="M16.6181 7.06473C16.609 7.07209 16.5993 7.07878 16.5892 7.08476C16.5888 7.07981 16.5877 7.07494 16.5859 7.07029L16.6181 7.06473Z" fill="#F8253A"/>
<path d="M51.7912 22.8548C50.9846 22.8548 50.1931 22.7507 49.4166 22.5423C48.6402 22.334 47.9316 22.0215 47.2908 21.6049C46.6501 21.1882 46.1186 20.6674 45.6965 20.0425C45.2819 19.4175 45.0331 18.6845 44.9502 17.8435H48.3311C48.4442 18.3527 48.659 18.7809 48.9756 19.1281C49.2922 19.4754 49.6918 19.7415 50.1742 19.9267C50.6567 20.1119 51.1919 20.2045 51.7799 20.2045C52.3829 20.2045 52.9332 20.1273 53.4308 19.973C53.9283 19.8187 54.3278 19.5872 54.6293 19.2786C54.9309 18.9623 55.0816 18.5688 55.0816 18.0981C55.0816 17.6737 54.9573 17.3265 54.7085 17.0565C54.4673 16.7864 54.1394 16.5665 53.7248 16.3968C53.3101 16.227 52.839 16.0882 52.3113 15.9801L49.4845 15.3899C48.2482 15.1507 47.2682 14.6492 46.5445 13.8853C45.8209 13.1138 45.4477 12.0876 45.4251 10.8068C45.4176 9.75742 45.6889 8.85082 46.2392 8.08697C46.7971 7.3154 47.5509 6.72129 48.5007 6.30464C49.4581 5.88799 50.5285 5.67967 51.712 5.67967C53.1217 5.67967 54.3052 5.90728 55.2626 6.36251C56.2275 6.81002 56.9587 7.41956 57.4562 8.19113C57.9613 8.95499 58.2213 9.80757 58.2364 10.7489H54.9233C54.863 10.1625 54.6897 9.69569 54.4032 9.34849C54.1167 9.00128 53.7474 8.75052 53.2951 8.59621C52.8503 8.44189 52.3415 8.36473 51.7686 8.36473C51.3314 8.36473 50.9318 8.41489 50.57 8.51519C50.2157 8.61549 49.9142 8.75823 49.6654 8.94341C49.4166 9.12087 49.2244 9.33306 49.0887 9.57996C48.953 9.82686 48.8852 10.1046 48.8852 10.4133C48.8852 10.8993 49.0435 11.2928 49.3601 11.5938C49.6767 11.8947 50.2685 12.1416 51.1354 12.3345L53.9396 12.9247C54.9422 13.1253 55.7375 13.4224 56.3255 13.8159C56.921 14.2094 57.3657 14.653 57.6597 15.1468C57.9613 15.6406 58.1573 16.146 58.2477 16.663C58.3457 17.1722 58.3947 17.6429 58.3947 18.075C58.3947 18.9777 58.1158 19.7917 57.558 20.517C57.0077 21.2345 56.2388 21.8055 55.2513 22.2299C54.2637 22.6465 53.1104 22.8548 51.7912 22.8548Z" fill="#292931"/>
<path d="M60.9131 22.6234V5.42505H64.1922V12.3808C64.3807 12.103 64.6182 11.8291 64.9046 11.559C65.1911 11.2813 65.5491 11.0498 65.9788 10.8646C66.4085 10.6794 66.9324 10.5869 67.5505 10.5869C68.2968 10.5869 68.9753 10.7373 69.5859 11.0382C70.204 11.3314 70.6978 11.7596 71.0672 12.3229C71.4441 12.8861 71.6325 13.5728 71.6325 14.383V22.6234H68.3195V14.8807C68.3195 14.3406 68.1272 13.9278 67.7428 13.6423C67.3659 13.3491 66.906 13.2025 66.3633 13.2025C66.009 13.2025 65.666 13.2681 65.3343 13.3992C65.0026 13.5304 64.7312 13.731 64.5202 14.0011C64.3166 14.2634 64.2149 14.5913 64.2149 14.9848V22.6234H60.9131Z" fill="#292931"/>
<path d="M79.3391 22.8548C78.1932 22.8548 77.1944 22.6041 76.3426 22.1026C75.4983 21.601 74.8425 20.8912 74.3751 19.973C73.9153 19.0548 73.6854 17.9669 73.6854 16.7093C73.6854 15.4516 73.9153 14.3521 74.3751 13.4108C74.8425 12.4695 75.4983 11.7365 76.3426 11.2118C77.1944 10.6872 78.197 10.4248 79.3504 10.4248C80.5037 10.4248 81.5026 10.6833 82.3468 11.2003C83.1911 11.7095 83.8432 12.4348 84.303 13.3761C84.7629 14.3174 84.9928 15.4285 84.9928 16.7093C84.9928 17.9129 84.7666 18.9777 84.3143 19.9036C83.8696 20.8217 83.225 21.5432 82.3808 22.0678C81.544 22.5925 80.5301 22.8548 79.3391 22.8548ZM79.3504 20.3434C79.9308 20.3434 80.3982 20.1698 80.7525 19.8226C81.1068 19.4754 81.3631 19.0201 81.5214 18.4569C81.6872 17.8859 81.7702 17.2648 81.7702 16.5935C81.7702 15.9608 81.6948 15.3629 81.544 14.7996C81.4008 14.2364 81.152 13.7812 80.7977 13.434C80.4434 13.0867 79.961 12.9131 79.3504 12.9131C78.7699 12.9131 78.2988 13.079 77.9369 13.4108C77.5826 13.7349 77.3226 14.1785 77.1567 14.7418C76.9909 15.2973 76.908 15.9146 76.908 16.5935C76.908 17.2185 76.9834 17.8203 77.1341 18.399C77.2849 18.97 77.5374 19.4368 77.8917 19.7994C78.246 20.1621 78.7322 20.3434 79.3504 20.3434Z" fill="#292931"/>
<path d="M87.194 26.35V10.6563H90.5071L90.5184 12.3808C90.6918 12.0953 90.9028 11.8368 91.1516 11.6053C91.4079 11.3661 91.6906 11.1578 91.9997 10.9804C92.3087 10.8029 92.6442 10.6679 93.006 10.5753C93.3679 10.475 93.7485 10.4248 94.1481 10.4248C95.015 10.4248 95.7877 10.6447 96.4661 11.0845C97.1445 11.5166 97.676 12.1879 98.0604 13.0983C98.4524 14.0011 98.6484 15.1507 98.6484 16.5472C98.6484 17.9978 98.4374 19.1899 98.0152 20.1235C97.6006 21.0494 97.0277 21.7361 96.2965 22.1836C95.5653 22.6311 94.7398 22.8548 93.8202 22.8548C93.4432 22.8548 93.0889 22.8008 92.7573 22.6928C92.4256 22.5925 92.1165 22.4498 91.8301 22.2646C91.5511 22.0794 91.2986 21.8672 91.0725 21.628C90.8538 21.3811 90.6616 21.1149 90.4958 20.8295V26.35H87.194ZM93.0286 20.3781C93.7448 20.3781 94.3441 20.0733 94.8265 19.4638C95.3165 18.8542 95.5615 17.8898 95.5615 16.5704C95.5615 15.413 95.3278 14.5103 94.8604 13.8622C94.4006 13.2063 93.79 12.8784 93.0286 12.8784C92.1768 12.8784 91.5398 13.2333 91.1177 13.9432C90.7031 14.6453 90.4958 15.5211 90.4958 16.5704C90.4958 17.2417 90.5862 17.8666 90.7672 18.4453C90.9556 19.024 91.2345 19.4908 91.6039 19.8457C91.9808 20.2006 92.4557 20.3781 93.0286 20.3781Z" fill="#292931"/>
<path d="M100.842 26.35V10.6563H104.155L104.167 12.3808C104.34 12.0953 104.551 11.8368 104.8 11.6053C105.056 11.3661 105.339 11.1578 105.648 10.9804C105.957 10.8029 106.293 10.6679 106.654 10.5753C107.016 10.475 107.397 10.4248 107.796 10.4248C108.663 10.4248 109.436 10.6447 110.115 11.0845C110.793 11.5166 111.324 12.1879 111.709 13.0983C112.101 14.0011 112.297 15.1507 112.297 16.5472C112.297 17.9978 112.086 19.1899 111.664 20.1235C111.249 21.0494 110.676 21.7361 109.945 22.1836C109.214 22.6311 108.388 22.8548 107.469 22.8548C107.092 22.8548 106.737 22.8008 106.406 22.6928C106.074 22.5925 105.765 22.4498 105.478 22.2646C105.2 22.0794 104.947 21.8672 104.721 21.628C104.502 21.3811 104.31 21.1149 104.144 20.8295V26.35H100.842ZM106.677 20.3781C107.393 20.3781 107.992 20.0733 108.475 19.4638C108.965 18.8542 109.21 17.8898 109.21 16.5704C109.21 15.413 108.976 14.5103 108.509 13.8622C108.049 13.2063 107.438 12.8784 106.677 12.8784C105.825 12.8784 105.188 13.2333 104.766 13.9432C104.351 14.6453 104.144 15.5211 104.144 16.5704C104.144 17.2417 104.235 17.8666 104.416 18.4453C104.604 19.024 104.883 19.4908 105.252 19.8457C105.629 20.2006 106.104 20.3781 106.677 20.3781Z" fill="#292931"/>
<path d="M117.205 17.4153C117.197 18.0248 117.291 18.5572 117.487 19.0124C117.683 19.4599 117.966 19.8071 118.335 20.054C118.712 20.2932 119.165 20.4128 119.692 20.4128C120.258 20.4128 120.751 20.2894 121.174 20.0425C121.603 19.7956 121.901 19.3905 122.067 18.8272H125.041C124.912 19.676 124.581 20.4012 124.046 21.0031C123.518 21.6049 122.877 22.064 122.123 22.3803C121.37 22.6967 120.586 22.8548 119.771 22.8548C118.618 22.8548 117.6 22.6079 116.718 22.1141C115.844 21.6126 115.162 20.9066 114.672 19.9962C114.182 19.0857 113.937 18.0132 113.937 16.7787C113.937 15.5828 114.159 14.5064 114.604 13.5497C115.049 12.5852 115.693 11.8252 116.537 11.2697C117.389 10.7065 118.411 10.4248 119.602 10.4248C120.793 10.4248 121.792 10.6833 122.598 11.2003C123.412 11.7095 124.023 12.4232 124.43 13.3414C124.845 14.2518 125.052 15.305 125.052 16.5009V17.4153H117.205ZM117.193 15.4015H121.965C121.965 14.9231 121.878 14.4833 121.705 14.0821C121.532 13.6809 121.268 13.3645 120.913 13.133C120.567 12.9016 120.129 12.7858 119.602 12.7858C119.089 12.7858 118.652 12.9131 118.29 13.1678C117.936 13.4147 117.664 13.7387 117.476 14.1399C117.288 14.5412 117.193 14.9617 117.193 15.4015Z" fill="#292931"/>
<path d="M127.344 22.6234V10.6563H130.522V13.4918C130.71 12.8823 130.974 12.3499 131.313 11.8947C131.66 11.4317 132.078 11.0729 132.568 10.8183C133.058 10.556 133.612 10.4248 134.23 10.4248C134.336 10.4248 134.434 10.4325 134.524 10.448C134.622 10.4557 134.694 10.4711 134.739 10.4943V13.7117C134.671 13.6809 134.588 13.6616 134.49 13.6539C134.4 13.6461 134.317 13.6384 134.242 13.6307C133.593 13.5767 133.039 13.596 132.58 13.6886C132.12 13.7812 131.747 13.9393 131.46 14.1631C131.174 14.3868 130.966 14.6608 130.838 14.9848C130.71 15.3089 130.646 15.6715 130.646 16.0727V22.6234H127.344Z" fill="#292931"/>
<path d="M135.897 22.6234V20.7369L141.663 13.0173H136.191V10.6563H145.666V12.5428L139.888 20.2624H145.7V22.6234H135.897Z" fill="#292931"/>
</svg>
