<svg width="35" height="35" viewBox="0 0 35 35" fill="none" xmlns="http://www.w3.org/2000/svg">
<rect width="35" height="35" fill="#F8253A"/>
<path d="M15.1799 13.4184C15.1754 13.422 15.1706 13.4252 15.1657 13.4281C15.1654 13.4257 15.1649 13.4234 15.164 13.4211L15.1799 13.4184Z" fill="white"/>
<path d="M23.4815 10.3861C22.1817 10.612 20.8852 10.873 19.6084 11.2111C18.0618 11.4765 16.5289 11.8035 15.0047 12.1717C14.3611 12.2969 13.7137 12.4029 13.0761 12.5517C12.5426 12.678 12.0123 12.8479 11.482 12.966C11.2283 13.0225 11.1182 13.1253 10.9876 12.8268C10.7963 12.3881 10.5446 11.9755 10.3043 11.5596C10.1975 11.3728 10.1497 11.126 9.93895 11.0289C9.19286 10.6838 8.44512 10.3406 7.68317 10.0376C7.41535 9.93153 7.15681 10.054 7.04476 10.3538C6.93708 10.6418 7.02508 10.8676 7.29373 11.0157C7.44732 11.1007 7.60665 11.1917 7.77555 11.2329C8.92803 11.5158 9.58066 12.2826 10.0518 13.318C10.5694 14.4565 10.6192 14.4347 11.8392 14.0878C12.0696 14.0897 12.2964 13.9573 12.532 14.0765C12.8102 14.2175 12.9419 14.4407 12.9348 14.7445C12.9222 15.1607 12.6156 15.2982 12.2822 15.4085C11.4213 15.51 10.5878 15.7447 9.74245 15.9199C9.27785 16.0163 9.08791 16.2868 9.17072 16.6816C9.24997 17.0609 9.56016 17.2396 10.0226 17.1424C10.9537 16.9462 11.8829 16.7368 12.8129 16.5328L15.8238 15.9156C16.1911 15.8901 16.504 15.9619 16.6196 16.363C16.7424 16.7877 16.5431 17.0585 16.1698 17.2396C14.7443 17.5295 13.3163 17.8097 11.8952 18.1162C11.5112 18.1986 11.4 18.5095 11.4773 18.8658C11.5484 19.1934 11.7859 19.3605 12.1193 19.3344C12.3653 19.3151 12.6112 19.2459 12.8512 19.181C13.1349 19.104 13.3117 19.1705 13.4451 19.4526C13.6364 19.8563 13.8178 20.2794 14.1529 20.5989C14.9802 21.387 15.9402 21.4527 16.9752 21.0866C18.1375 20.9001 19.2854 20.6471 20.4272 20.3685C20.5144 20.3646 20.6013 20.3561 20.6876 20.3432C21.3654 20.2086 22.0429 20.0741 22.7188 19.9325C22.8896 19.8956 23.0656 19.8579 23.1189 20.0638C23.182 20.3061 22.9694 20.3416 22.7988 20.3868C22.6707 20.4202 22.5392 20.4407 22.4102 20.4676L19.2747 21.1585C18.6505 21.2766 18.0238 21.3835 17.404 21.5175C16.0247 21.8152 15.4734 22.5352 15.5385 23.9259C15.5642 24.454 15.9145 24.8699 16.4248 24.9775C16.8908 25.0758 17.3772 24.8454 17.6112 24.4163C17.8503 23.9757 17.7478 23.4065 17.3745 23.0598C17.2723 22.9642 17.0971 22.9451 17.0528 22.7435C17.8271 22.4372 18.6789 22.4179 19.4597 22.1404C20.076 22.1183 20.6548 21.8774 21.2834 21.8187C20.7535 22.7322 20.8123 23.3217 21.4542 23.713C21.6873 23.8559 21.9672 23.9054 22.2362 23.8512C22.5052 23.7969 22.7429 23.6432 22.9002 23.4215C23.3351 22.8076 23.1462 22.227 22.2733 21.5937C22.5925 21.5264 22.8789 21.4739 23.1615 21.4053C23.8942 21.2258 24.3585 20.5462 24.2142 19.8735C24.1381 19.5287 23.927 19.2274 23.6267 19.0349C23.3265 18.8424 22.9612 18.7743 22.6103 18.8454C21.7032 19.0252 20.8032 19.2354 19.8995 19.4316C18.8404 19.6294 17.7787 19.8116 16.7399 20.1045H16.7383C16.7249 20.108 16.7109 20.1123 16.6984 20.1158C16.483 20.1473 16.2611 20.1516 16.0545 20.2146C15.5467 20.3715 15.2381 20.0754 14.799 19.754C15.5262 19.6779 16.1184 19.543 16.7098 19.4028L21.6707 18.3625C22.0593 18.2845 22.4504 18.2207 22.8355 18.1262C23.7647 17.8993 24.4228 17.3107 24.5572 16.399C24.7824 14.8665 24.9024 13.3156 24.9975 11.7696C25.0494 10.9379 24.282 10.247 23.4815 10.3861ZM15.187 14.7927C14.9411 14.8323 14.6951 14.8751 14.4491 14.9101C14.0586 14.9663 13.7563 14.7779 13.6825 14.4372C13.5954 14.0318 13.7848 13.7061 14.1876 13.6098C14.5095 13.5317 14.8386 13.4819 15.1649 13.4198L15.1807 13.4171C15.4994 13.5441 15.7366 13.7253 15.7454 14.1072C15.7536 14.4985 15.5011 14.666 15.187 14.7927Z" fill="white"/>
<path d="M16.7388 20.1034C16.7254 20.1069 16.7114 20.1112 16.6989 20.1147C16.7109 20.1074 16.7247 20.1035 16.7388 20.1034Z" fill="white"/>
<path d="M15.1799 13.4184C15.1754 13.422 15.1706 13.4252 15.1657 13.4281C15.1654 13.4257 15.1649 13.4234 15.164 13.4211L15.1799 13.4184Z" fill="white"/>
<path d="M10.3863 19.6663C9.84463 19.8388 9.28 19.9403 8.80966 20.0517C8.38551 20.0052 8.17043 19.8364 8.11878 19.5062C8.06904 19.1794 8.18737 18.9175 8.52325 18.8308C9.01956 18.703 9.52296 18.5908 10.0288 18.5111C10.3543 18.4605 10.6028 18.6188 10.6992 18.9455C10.7908 19.2626 10.7063 19.5648 10.3863 19.6663Z" fill="white"/>
<path d="M15.1799 13.4184C15.1754 13.422 15.1706 13.4252 15.1657 13.4281C15.1654 13.4257 15.1649 13.4234 15.164 13.4211L15.1799 13.4184Z" fill="white"/>
</svg>
