<svg width="35" height="35" viewBox="0 0 35 35" fill="none" xmlns="http://www.w3.org/2000/svg">
<rect width="35" height="35" fill="#F6B01E"/>
<path d="M18.3596 11.4167C18.2243 11.3581 18.0759 11.3365 17.9295 11.3541C17.7831 11.3716 17.6439 11.4277 17.5263 11.5167L13.543 14.6667H10.5013C10.2803 14.6667 10.0683 14.7545 9.91205 14.9107C9.75577 15.067 9.66797 15.279 9.66797 15.5V20.5C9.66797 20.721 9.75577 20.933 9.91205 21.0892C10.0683 21.2455 10.2803 21.3333 10.5013 21.3333H13.543L17.4846 24.4833C17.6313 24.601 17.8133 24.6656 18.0013 24.6667C18.1258 24.6687 18.2488 24.6401 18.3596 24.5833C18.5014 24.5158 18.6213 24.4095 18.7053 24.2768C18.7894 24.1441 18.8342 23.9904 18.8346 23.8333V12.1667C18.8342 12.0096 18.7894 11.8558 18.7053 11.7231C18.6213 11.5904 18.5014 11.4842 18.3596 11.4167ZM17.168 22.1L14.3513 19.85C14.2047 19.7324 14.0226 19.6677 13.8346 19.6667H11.3346V16.3333H13.8346C14.0226 16.3322 14.2047 16.2676 14.3513 16.15L17.168 13.9V22.1ZM24.3846 13.2833C24.2277 13.1264 24.0149 13.0382 23.793 13.0382C23.5711 13.0382 23.3582 13.1264 23.2013 13.2833C23.0444 13.4402 22.9562 13.6531 22.9562 13.875C22.9562 14.0969 23.0444 14.3097 23.2013 14.4667C23.692 14.9566 24.0754 15.5433 24.3272 16.1894C24.579 16.8355 24.6937 17.5269 24.6639 18.2197C24.6341 18.9125 24.4606 19.5915 24.1543 20.2136C23.8479 20.8357 23.4156 21.3873 22.8846 21.8333C22.7557 21.9436 22.6635 22.0906 22.6203 22.2546C22.5771 22.4187 22.5851 22.592 22.643 22.7515C22.701 22.9109 22.8063 23.0489 22.9447 23.1469C23.0832 23.2449 23.2483 23.2983 23.418 23.3C23.6127 23.3004 23.8014 23.2326 23.9513 23.1083C24.6604 22.5144 25.2382 21.7794 25.6479 20.9501C26.0575 20.1208 26.2901 19.2153 26.3309 18.2912C26.3716 17.3671 26.2197 16.4447 25.8846 15.5825C25.5495 14.7204 25.0387 13.9374 24.3846 13.2833ZM22.0263 15.6417C21.9486 15.564 21.8564 15.5023 21.7548 15.4603C21.6533 15.4182 21.5445 15.3966 21.4346 15.3966C21.3248 15.3966 21.2159 15.4182 21.1144 15.4603C21.0129 15.5023 20.9207 15.564 20.843 15.6417C20.7653 15.7194 20.7036 15.8116 20.6616 15.9131C20.6195 16.0146 20.5979 16.1234 20.5979 16.2333C20.5979 16.3432 20.6195 16.452 20.6616 16.5535C20.7036 16.655 20.7653 16.7473 20.843 16.825C21.156 17.1361 21.3328 17.5587 21.3346 18C21.3348 18.2428 21.282 18.4827 21.1798 18.7029C21.0776 18.9231 20.9285 19.1184 20.743 19.275C20.6586 19.3449 20.5888 19.4309 20.5377 19.5278C20.4866 19.6248 20.4551 19.7309 20.445 19.84C20.435 19.9492 20.4465 20.0592 20.4791 20.1639C20.5116 20.2686 20.5645 20.3658 20.6346 20.45C20.7052 20.5338 20.7915 20.6028 20.8888 20.6532C20.9861 20.7036 21.0923 20.7343 21.2014 20.7436C21.3105 20.7528 21.4204 20.7405 21.5248 20.7073C21.6292 20.6741 21.7259 20.6206 21.8096 20.55C22.1822 20.2376 22.482 19.8474 22.6878 19.4069C22.8937 18.9664 23.0007 18.4862 23.0013 18C22.9966 17.1167 22.6467 16.2704 22.0263 15.6417Z" fill="#292931"/>
</svg>
